# xmcd
#
# Track frame offsets: 
#        150
#        20210
#        39881
#
# Disc length: 803 seconds
#
# Revision: 0
# Processed by: cddbd v1.5.2PL0 Copyright (c) Steve Scherf et al.
# Submitted via: ExactAudioCopy v0.99pb3
#
DISCID=1c032103
DTITLE=The Brothers With Different Mothers - Rocktopussy
DYEAR=2004
DGENRE=BWDM
TTITLE0=Rocktopussy
TTITLE1=Dreaming
TTITLE2=The Autumn Leaves
EXTD=
EXTT0=
EXTT1=
EXTT2=
PLAYORDER=
